<?xml version="1.0" encoding="UTF-8" standalone="no"?>
<!DOCTYPE svg PUBLIC "-//W3C//DTD SVG 1.1//EN" "http://www.w3.org/Graphics/SVG/1.1/DTD/svg11.dtd">
<svg width="100%" height="100%" viewBox="0 0 94 50" version="1.1" xmlns="http://www.w3.org/2000/svg" xmlns:xlink="http://www.w3.org/1999/xlink" xml:space="preserve" xmlns:serif="http://www.serif.com/" style="fill-rule:evenodd;clip-rule:evenodd;stroke-linejoin:round;stroke-miterlimit:2;">
    <g transform="matrix(1,0,0,1,60.0298,0)">
        <path d="M23.989,20L10,50L0,50L13.989,20L23.989,20ZM28.652,10L18.652,10L23.315,0L33.315,0L28.652,10Z" style="fill:white;"/>
    </g>
    <path d="M59.341,30L50.015,50L40.015,50L49.341,30L59.341,30ZM64.004,20L54.004,20L63.33,0L73.33,0L64.004,20Z" style="fill:white;"/>
    <g transform="matrix(1,0,0,1,-40.0149,0)">
        <path d="M59.341,30L50.015,50L40.015,50L49.341,30L59.341,30ZM64.004,20L54.004,20L63.33,0L73.33,0L64.004,20Z" style="fill:white;"/>
    </g>
    <g transform="matrix(1,0,0,1,-40.0149,0)">
        <path d="M70.03,50L60.03,50L70.03,50ZM84.019,20L74.693,40L64.693,40L74.019,20L84.019,20ZM88.682,10L78.682,10L83.345,0L93.345,0L88.682,10Z" style="fill:white;"/>
    </g>
</svg>
