<?xml version="1.0" encoding="UTF-8" standalone="no"?>
<!DOCTYPE svg PUBLIC "-//W3C//DTD SVG 1.1//EN" "http://www.w3.org/Graphics/SVG/1.1/DTD/svg11.dtd">
<svg width="100%" height="100%" viewBox="0 0 100 46" version="1.1" xmlns="http://www.w3.org/2000/svg" xmlns:xlink="http://www.w3.org/1999/xlink" xml:space="preserve" xmlns:serif="http://www.serif.com/" style="fill-rule:evenodd;clip-rule:evenodd;stroke-linejoin:round;stroke-miterlimit:2;">
    <g transform="matrix(1,0,0,1,14.1,0)">
        <path d="M65.9,2C76.938,2 85.9,10.962 85.9,22C85.9,33.038 76.938,42 65.9,42C54.862,42 45.9,33.038 45.9,22C45.9,10.962 54.862,2 65.9,2ZM65.15,28C66.116,28 66.9,28.784 66.9,29.75C66.9,30.716 66.116,31.5 65.15,31.5C64.184,31.5 63.4,30.716 63.4,29.75C63.4,28.784 64.184,28 65.15,28ZM73,14C76.863,14 80,17.137 80,21C80,24.863 76.863,28 73,28C69.137,28 66,24.863 66,21C66,17.137 69.137,14 73,14ZM57.5,14C53.637,14 50.5,17.137 50.5,21C50.5,24.863 53.637,28 57.5,28C61.363,28 64.5,24.863 64.5,21C64.5,17.137 61.363,14 57.5,14ZM73,15.4C76.091,15.4 78.6,17.909 78.6,21C78.6,24.091 76.091,26.6 73,26.6C69.909,26.6 67.4,24.091 67.4,21C67.4,17.909 69.909,15.4 73,15.4ZM57.5,15.4C54.409,15.4 51.9,17.909 51.9,21C51.9,24.091 54.409,26.6 57.5,26.6C60.591,26.6 63.1,24.091 63.1,21C63.1,17.909 60.591,15.4 57.5,15.4ZM60,19C58.62,19 57.5,20.12 57.5,21.5C57.5,22.88 58.62,24 60,24C61.38,24 62.5,22.88 62.5,21.5C62.5,20.12 61.38,19 60,19ZM70.5,19C71.88,19 73,20.12 73,21.5C73,22.88 71.88,24 70.5,24C69.12,24 68,22.88 68,21.5C68,20.12 69.12,19 70.5,19Z" style="fill:white;"/>
    </g>
    <g transform="matrix(0.3,0,0,0.3,65.1,8)">
        <circle cx="65" cy="45" r="5" style="fill:white;"/>
    </g>
    <g transform="matrix(-0.3,0,0,0.3,93.6,8)">
        <circle cx="65" cy="45" r="5" style="fill:white;"/>
    </g>
    <g transform="matrix(1,0,0,1,-10,-8)">
        <rect x="84" y="48" width="4" height="6" style="fill:white;"/>
    </g>
    <g transform="matrix(1,0,0,1,-2,-8)">
        <rect x="84" y="48" width="4" height="6" style="fill:white;"/>
    </g>
    <g transform="matrix(1,0,0,3.25,10.1,-131)">
        <path d="M88,48.308C88,48.138 87.552,48 87,48L85,48C84.448,48 84,48.138 84,48.308L84,53.692C84,53.862 84.448,54 85,54L87,54C87.552,54 88,53.862 88,53.692L88,48.308Z" style="fill:white;"/>
    </g>
    <g transform="matrix(2.85,0,0,2.73846,-142.5,-126.708)">
        <path d="M70,48.336C70,47.599 69.425,47 68.716,47L51.284,47C50.575,47 50,47.599 50,48.336L50,58.664C50,59.401 50.575,60 51.284,60L68.716,60C69.425,60 70,59.401 70,58.664L70,48.336ZM69.298,48.336L69.298,58.664C69.298,58.998 69.038,59.27 68.716,59.27C68.716,59.27 51.284,59.27 51.284,59.27C50.962,59.27 50.702,58.998 50.702,58.664L50.702,48.336C50.702,48.002 50.962,47.73 51.284,47.73L68.716,47.73C69.038,47.73 69.298,48.002 69.298,48.336Z" style="fill:white;"/>
    </g>
    <g transform="matrix(1,0,0,1,14.1,0)">
        <path d="M42.9,14.172L50.456,21.728L47.628,24.556L42.9,19.828L42.9,14.172Z" style="fill:white;"/>
    </g>
    <g transform="matrix(1,0,0,1.33333,-37,-66)">
        <path d="M88,48.75C88,48.336 87.552,48 87,48L85,48C84.448,48 84,48.336 84,48.75L84,53.25C84,53.664 84.448,54 85,54L87,54C87.552,54 88,53.664 88,53.25L88,48.75Z" style="fill:white;"/>
    </g>
    <g transform="matrix(1,0,0,1,3.6,0)">
        <path d="M46.4,40L3.9,40L3.9,46L46.4,46L46.4,40ZM36.9,44L7,44L7,45L36.9,45L36.9,44ZM44.5,42L39.5,42L39.5,44.444L44.5,44.444L44.5,42ZM37,41L7,41L7,43.222L37,43.222L37,41Z" style="fill:white;"/>
    </g>
</svg>
