<?xml version="1.0" encoding="UTF-8" standalone="no"?>
<!DOCTYPE svg PUBLIC "-//W3C//DTD SVG 1.1//EN" "http://www.w3.org/Graphics/SVG/1.1/DTD/svg11.dtd">
<svg width="100%" height="100%" viewBox="0 0 139 88" version="1.1" xmlns="http://www.w3.org/2000/svg" xmlns:xlink="http://www.w3.org/1999/xlink" xml:space="preserve" xmlns:serif="http://www.serif.com/" style="fill-rule:evenodd;clip-rule:evenodd;stroke-linejoin:round;stroke-miterlimit:2;">
    <path d="M41.463,42.155C35.748,48.035 32.228,56.055 32.228,64.891C32.228,73.419 35.507,81.187 40.873,87.003L22.214,87.003C9.954,87.003 0,77.05 0,64.789L0,64.369C0,52.109 9.954,42.155 22.214,42.155L41.463,42.155Z" style="fill:rgb(252,254,255);"/>
    <path d="M84.167,83.095C78.673,85.604 72.565,87.003 66.133,87.003C42.123,87.003 22.631,67.511 22.631,43.502C22.631,19.492 42.123,0 66.133,0C82.055,0 95.992,8.573 103.574,21.353C101.72,21.026 99.815,20.855 97.87,20.855C79.863,20.855 65.244,35.475 65.244,53.482C65.244,66.596 72.999,77.914 84.167,83.095Z" style="fill:rgb(252,254,255);"/>
    <g transform="matrix(0.961461,0,0,0.961461,49.3213,-9.0259)">
        <circle cx="59.122" cy="58.773" r="33.934" style="fill:rgb(252,254,255);"/>
    </g>
</svg>
