<?xml version="1.0" encoding="utf-8"?>
<svg version="1.1" id="Layer_1" xmlns="http://www.w3.org/2000/svg" xmlns:xlink="http://www.w3.org/1999/xlink" x="0px" y="0px"
	 viewBox="0 0 512 512" style="enable-background:new 0 0 512 512;" xml:space="preserve">
<g id="XMLID_1_">
	<path id="XMLID_3_" d="M77.7,101.5c-4.7,0-8.4,1.9-10.2,4.7c-1.9,2.8-1.9,7.4,0,11.2l50.3,86.6l0,0L39.6,342.6
		c-1.9,3.7-1.9,8.4,0,11.2s5.6,4.7,9.3,4.7h73.5c11.2,0,16.8-7.4,20.5-14c0,0,76.3-135.9,80.1-140.6l-51.2-89.4
		c-3.7-6.5-9.3-14-20.5-14H77.7V101.5z"/>
	<path id="XMLID_4_" d="M387.7,0c-11.2,0-15.8,6.5-19.5,14c0,0-159.2,282.1-163.8,291.4L308.6,498c3.7,6.5,9.3,14,20.5,14h73.5
		c4.7,0,7.4-1.9,10.2-4.7c1.9-2.8,1.9-7.4,0-11.2L308.6,305.3v-0.9L472.4,15.8c1.9-3.7,1.9-8.4,0-11.2c-1.9-2.8-5.6-4.7-10.2-4.7
		H387.7L387.7,0z"/>
</g>
</svg>
